<svg width="311" height="30" viewBox="0 0 311 30" fill="none" xmlns="http://www.w3.org/2000/svg">
<path d="M19.492 11.864C19.492 13.328 19.156 14.672 18.484 15.896C17.812 17.096 16.78 18.068 15.388 18.812C13.996 19.556 12.268 19.928 10.204 19.928H6.388V29H0.232V3.728H10.204C12.22 3.728 13.924 4.076 15.316 4.772C16.708 5.468 17.752 6.428 18.448 7.652C19.144 8.876 19.492 10.28 19.492 11.864ZM9.736 15.032C10.912 15.032 11.788 14.756 12.364 14.204C12.94 13.652 13.228 12.872 13.228 11.864C13.228 10.856 12.94 10.076 12.364 9.524C11.788 8.972 10.912 8.696 9.736 8.696H6.388V15.032H9.736ZM41.6328 18.632C41.6328 19.208 41.5968 19.808 41.5248 20.432H27.5928C27.6888 21.68 28.0848 22.64 28.7808 23.312C29.5008 23.96 30.3768 24.284 31.4088 24.284C32.9448 24.284 34.0128 23.636 34.6128 22.34H41.1648C40.8288 23.66 40.2168 24.848 39.3288 25.904C38.4648 26.96 37.3728 27.788 36.0528 28.388C34.7328 28.988 33.2568 29.288 31.6248 29.288C29.6568 29.288 27.9048 28.868 26.3688 28.028C24.8328 27.188 23.6328 25.988 22.7688 24.428C21.9048 22.868 21.4728 21.044 21.4728 18.956C21.4728 16.868 21.8928 15.044 22.7328 13.484C23.5968 11.924 24.7968 10.724 26.3328 9.884C27.8688 9.044 29.6328 8.624 31.6248 8.624C33.5688 8.624 35.2968 9.032 36.8088 9.848C38.3208 10.664 39.4968 11.828 40.3368 13.34C41.2008 14.852 41.6328 16.616 41.6328 18.632ZM35.3328 17.012C35.3328 15.956 34.9728 15.116 34.2528 14.492C33.5328 13.868 32.6328 13.556 31.5528 13.556C30.5208 13.556 29.6448 13.856 28.9248 14.456C28.2288 15.056 27.7968 15.908 27.6288 17.012H35.3328ZM51.0364 12.26C51.7564 11.156 52.6564 10.292 53.7364 9.668C54.8164 9.02 56.0164 8.696 57.3364 8.696V15.212H55.6444C54.1084 15.212 52.9564 15.548 52.1884 16.22C51.4204 16.868 51.0364 18.02 51.0364 19.676V29H44.8804V8.912H51.0364V12.26ZM68.4509 29.288C66.6989 29.288 65.1389 28.988 63.7709 28.388C62.4029 27.788 61.3229 26.972 60.5309 25.94C59.7389 24.884 59.2949 23.708 59.1989 22.412H65.2829C65.3549 23.108 65.6789 23.672 66.2549 24.104C66.8309 24.536 67.5389 24.752 68.3789 24.752C69.1469 24.752 69.7349 24.608 70.1429 24.32C70.5749 24.008 70.7909 23.612 70.7909 23.132C70.7909 22.556 70.4909 22.136 69.8909 21.872C69.2909 21.584 68.3189 21.272 66.9749 20.936C65.5349 20.6 64.3349 20.252 63.3749 19.892C62.4149 19.508 61.5869 18.92 60.8909 18.128C60.1949 17.312 59.8469 16.22 59.8469 14.852C59.8469 13.7 60.1589 12.656 60.7829 11.72C61.4309 10.76 62.3669 10.004 63.5909 9.452C64.8389 8.9 66.3149 8.624 68.0189 8.624C70.5389 8.624 72.5189 9.248 73.9589 10.496C75.4229 11.744 76.2629 13.4 76.4789 15.464H70.7909C70.6949 14.768 70.3829 14.216 69.8549 13.808C69.3509 13.4 68.6789 13.196 67.8389 13.196C67.1189 13.196 66.5669 13.34 66.1829 13.628C65.7989 13.892 65.6069 14.264 65.6069 14.744C65.6069 15.32 65.9069 15.752 66.5069 16.04C67.1309 16.328 68.0909 16.616 69.3869 16.904C70.8749 17.288 72.0869 17.672 73.0229 18.056C73.9589 18.416 74.7749 19.016 75.4709 19.856C76.1909 20.672 76.5629 21.776 76.5869 23.168C76.5869 24.344 76.2509 25.4 75.5789 26.336C74.9309 27.248 73.9829 27.968 72.7349 28.496C71.5109 29.024 70.0829 29.288 68.4509 29.288ZM89.4971 29.288C87.5291 29.288 85.7531 28.868 84.1691 28.028C82.6091 27.188 81.3731 25.988 80.4611 24.428C79.5731 22.868 79.1291 21.044 79.1291 18.956C79.1291 16.892 79.5851 15.08 80.4971 13.52C81.4091 11.936 82.6571 10.724 84.2411 9.884C85.8251 9.044 87.6011 8.624 89.5691 8.624C91.5371 8.624 93.3131 9.044 94.8971 9.884C96.4811 10.724 97.7291 11.936 98.6411 13.52C99.5531 15.08 100.009 16.892 100.009 18.956C100.009 21.02 99.5411 22.844 98.6051 24.428C97.6931 25.988 96.4331 27.188 94.8251 28.028C93.2411 28.868 91.4651 29.288 89.4971 29.288ZM89.4971 23.96C90.6731 23.96 91.6691 23.528 92.4851 22.664C93.3251 21.8 93.7451 20.564 93.7451 18.956C93.7451 17.348 93.3371 16.112 92.5211 15.248C91.7291 14.384 90.7451 13.952 89.5691 13.952C88.3691 13.952 87.3731 14.384 86.5811 15.248C85.7891 16.088 85.3931 17.324 85.3931 18.956C85.3931 20.564 85.7771 21.8 86.5451 22.664C87.3371 23.528 88.3211 23.96 89.4971 23.96ZM115.515 8.696C117.867 8.696 119.739 9.464 121.131 11C122.547 12.512 123.255 14.6 123.255 17.264V29H117.135V18.092C117.135 16.748 116.787 15.704 116.091 14.96C115.395 14.216 114.459 13.844 113.283 13.844C112.107 13.844 111.171 14.216 110.475 14.96C109.779 15.704 109.431 16.748 109.431 18.092V29H103.275V8.912H109.431V11.576C110.055 10.688 110.895 9.992 111.951 9.488C113.007 8.96 114.195 8.696 115.515 8.696ZM126.309 18.92C126.309 16.856 126.693 15.044 127.461 13.484C128.253 11.924 129.321 10.724 130.665 9.884C132.009 9.044 133.509 8.624 135.165 8.624C136.581 8.624 137.817 8.912 138.873 9.488C139.953 10.064 140.781 10.82 141.357 11.756V8.912H147.513V29H141.357V26.156C140.757 27.092 139.917 27.848 138.837 28.424C137.781 29 136.545 29.288 135.129 29.288C133.497 29.288 132.009 28.868 130.665 28.028C129.321 27.164 128.253 25.952 127.461 24.392C126.693 22.808 126.309 20.984 126.309 18.92ZM141.357 18.956C141.357 17.42 140.925 16.208 140.061 15.32C139.221 14.432 138.189 13.988 136.965 13.988C135.741 13.988 134.697 14.432 133.833 15.32C132.993 16.184 132.573 17.384 132.573 18.92C132.573 20.456 132.993 21.68 133.833 22.592C134.697 23.48 135.741 23.924 136.965 23.924C138.189 23.924 139.221 23.48 140.061 22.592C140.925 21.704 141.357 20.492 141.357 18.956ZM158.551 16.328C158.551 13.832 159.091 11.612 160.171 9.668C161.251 7.7 162.751 6.176 164.671 5.096C166.615 3.992 168.811 3.44 171.259 3.44C174.259 3.44 176.827 4.232 178.963 5.816C181.099 7.4 182.527 9.56 183.247 12.296H176.479C175.975 11.24 175.255 10.436 174.319 9.884C173.407 9.332 172.363 9.056 171.187 9.056C169.291 9.056 167.755 9.716 166.579 11.036C165.403 12.356 164.815 14.12 164.815 16.328C164.815 18.536 165.403 20.3 166.579 21.62C167.755 22.94 169.291 23.6 171.187 23.6C172.363 23.6 173.407 23.324 174.319 22.772C175.255 22.22 175.975 21.416 176.479 20.36H183.247C182.527 23.096 181.099 25.256 178.963 26.84C176.827 28.4 174.259 29.18 171.259 29.18C168.811 29.18 166.615 28.64 164.671 27.56C162.751 26.456 161.251 24.932 160.171 22.988C159.091 21.044 158.551 18.824 158.551 16.328ZM199.365 8.696C201.669 8.696 203.517 9.464 204.909 11C206.301 12.512 206.997 14.6 206.997 17.264V29H200.877V18.092C200.877 16.748 200.529 15.704 199.833 14.96C199.137 14.216 198.201 13.844 197.025 13.844C195.849 13.844 194.913 14.216 194.217 14.96C193.521 15.704 193.173 16.748 193.173 18.092V29H187.017V2.36H193.173V11.612C193.797 10.724 194.649 10.016 195.729 9.488C196.809 8.96 198.021 8.696 199.365 8.696ZM210.051 18.92C210.051 16.856 210.435 15.044 211.203 13.484C211.995 11.924 213.063 10.724 214.407 9.884C215.751 9.044 217.251 8.624 218.907 8.624C220.323 8.624 221.559 8.912 222.615 9.488C223.695 10.064 224.523 10.82 225.099 11.756V8.912H231.255V29H225.099V26.156C224.499 27.092 223.659 27.848 222.579 28.424C221.523 29 220.287 29.288 218.871 29.288C217.239 29.288 215.751 28.868 214.407 28.028C213.063 27.164 211.995 25.952 211.203 24.392C210.435 22.808 210.051 20.984 210.051 18.92ZM225.099 18.956C225.099 17.42 224.667 16.208 223.803 15.32C222.963 14.432 221.931 13.988 220.707 13.988C219.483 13.988 218.439 14.432 217.575 15.32C216.735 16.184 216.315 17.384 216.315 18.92C216.315 20.456 216.735 21.68 217.575 22.592C218.439 23.48 219.483 23.924 220.707 23.924C221.931 23.924 222.963 23.48 223.803 22.592C224.667 21.704 225.099 20.492 225.099 18.956ZM238.805 6.824C237.725 6.824 236.837 6.512 236.141 5.888C235.469 5.24 235.133 4.448 235.133 3.512C235.133 2.552 235.469 1.76 236.141 1.136C236.837 0.487998 237.725 0.163998 238.805 0.163998C239.861 0.163998 240.725 0.487998 241.397 1.136C242.093 1.76 242.441 2.552 242.441 3.512C242.441 4.448 242.093 5.24 241.397 5.888C240.725 6.512 239.861 6.824 238.805 6.824ZM241.865 8.912V29H235.709V8.912H241.865ZM258.566 8.696C260.918 8.696 262.79 9.464 264.182 11C265.598 12.512 266.306 14.6 266.306 17.264V29H260.186V18.092C260.186 16.748 259.838 15.704 259.142 14.96C258.446 14.216 257.51 13.844 256.334 13.844C255.158 13.844 254.222 14.216 253.526 14.96C252.83 15.704 252.482 16.748 252.482 18.092V29H246.326V8.912H252.482V11.576C253.106 10.688 253.946 9.992 255.002 9.488C256.058 8.96 257.246 8.696 258.566 8.696ZM293.944 24.536H284.512L283 29H276.556L285.7 3.728H292.828L301.972 29H295.456L293.944 24.536ZM292.36 19.784L289.228 10.532L286.132 19.784H292.36ZM310.911 3.728V29H304.755V3.728H310.911Z" fill="#1E1DFF" fill-opacity="0.76"/>
</svg>
